<svg xmlns="http://www.w3.org/2000/svg" width="39" height="38" viewBox="0 0 39 38" fill="none">
  <rect x="0.200684" y="0.579468" width="38" height="37" rx="7" fill="#FFD700"/>
  <path d="M21.9659 11.7113C25.2554 9.55042 27.994 8.55429 29.0014 9.55042C30.5753 11.0829 27.3645 16.5387 22.0131 21.8105C16.6617 27.0823 10.9956 30.1474 9.42167 28.6148C8.3876 27.608 9.39019 24.8525 11.7684 21.5776" stroke="black" stroke-width="1.5" stroke-linecap="round" stroke-linejoin="round"/>
  <path d="M16.7879 26.3375C17.581 26.5875 18.4095 26.7148 19.2432 26.7145C20.4951 26.7153 21.7291 26.4253 22.8428 25.8686C23.9564 25.3119 24.9176 24.5045 25.6465 23.5135C26.3754 22.5225 26.851 21.3765 27.0338 20.1706C27.2165 18.9647 27.1012 17.7338 26.6973 16.58M12.9475 23.6495C11.8109 22.1739 11.2591 20.3486 11.3933 18.5088C11.5276 16.6689 12.339 14.938 13.6785 13.6337C15.018 12.3295 16.7957 11.5394 18.6853 11.4087C20.5749 11.2779 22.4495 11.8152 23.965 12.9219" stroke="black" stroke-width="1.5" stroke-linecap="round" stroke-linejoin="round"/>
</svg>